<?xml version="1.0"?>
<svg xmlns="http://www.w3.org/2000/svg" height="512px" version="1.1" viewBox="0 0 134 134.16046" width="512px"><g><g id="surface1">
<path d="M 109.738281 0.914062 C 108.523438 -0.304688 106.546875 -0.304688 105.328125 0.914062 C 104.109375 2.132812 104.109375 4.105469 105.328125 5.324219 L 111.871094 11.867188 L 106.125 17.402344 L 116.617188 27.902344 L 122.359375 22.371094 L 117.117188 17.125 L 128.902344 28.910156 C 130.121094 30.128906 132.09375 30.128906 133.3125 28.910156 C 134.53125 27.695312 134.53125 25.71875 133.3125 24.5 Z M 109.738281 0.914062 " data-original="#000000" class="active-path" data-old_color="#000000" fill="#6D6E71"/>
<path d="M 125.746094 41.1875 L 93.042969 8.476562 C 91.824219 7.261719 89.851562 7.261719 88.632812 8.476562 C 87.414062 9.695312 87.414062 11.671875 88.632812 12.890625 L 93.351562 17.609375 L 84.332031 26.632812 L 91.808594 34.109375 C 92.546875 34.851562 92.546875 36.050781 91.808594 36.785156 C 91.066406 37.53125 89.871094 37.53125 89.132812 36.785156 L 81.652344 29.308594 L 74.75 36.214844 L 82.226562 43.691406 C 82.984375 44.394531 83.023438 45.574219 82.320312 46.332031 C 81.617188 47.089844 80.429688 47.128906 79.679688 46.425781 C 79.644531 46.394531 79.617188 46.367188 79.585938 46.332031 L 72.109375 38.855469 L 65.203125 45.746094 L 72.683594 53.222656 C 73.4375 53.925781 73.476562 55.109375 72.773438 55.863281 C 72.070312 56.617188 70.886719 56.664062 70.132812 55.957031 C 70.101562 55.929688 70.070312 55.894531 70.042969 55.863281 L 62.566406 48.390625 L 55.660156 55.289062 L 63.136719 62.765625 C 63.878906 63.503906 63.878906 64.699219 63.140625 65.441406 C 62.410156 66.179688 61.210938 66.183594 60.472656 65.445312 L 52.996094 57.96875 L 46.082031 64.886719 L 53.554688 72.359375 C 54.3125 73.0625 54.355469 74.246094 53.652344 75.003906 C 52.949219 75.757812 51.761719 75.800781 51.007812 75.097656 C 50.976562 75.066406 50.945312 75.035156 50.914062 75.003906 L 43.4375 67.527344 L 36.546875 74.402344 L 44.023438 81.878906 C 44.78125 82.582031 44.820312 83.769531 44.117188 84.519531 C 43.414062 85.277344 42.230469 85.320312 41.476562 84.617188 C 41.441406 84.589844 41.414062 84.554688 41.382812 84.519531 L 33.90625 77.046875 L 24.886719 86.066406 L 31.277344 92.457031 L 23.566406 100.171875 L 27.488281 104.070312 L 0.679688 130.921875 C -0.078125 131.625 -0.121094 132.8125 0.582031 133.5625 C 1.285156 134.320312 2.46875 134.363281 3.226562 133.660156 C 3.253906 133.625 3.289062 133.597656 3.316406 133.5625 L 30.132812 106.75 L 34.058594 110.675781 L 41.78125 102.949219 L 48.171875 109.34375 L 116.628906 40.886719 L 121.273438 45.597656 C 122.496094 46.816406 124.464844 46.816406 125.683594 45.597656 C 126.90625 44.375 126.90625 42.40625 125.683594 41.1875 Z M 125.746094 41.1875 " data-original="#000000" class="active-path" data-old_color="#000000" fill="#6D6E71"/>
</g></g> </svg>
