<?xml version="1.0"?>
<svg xmlns="http://www.w3.org/2000/svg" id="Layer_1" enable-background="new 0 0 480 480" height="512px" viewBox="0 0 480 480" width="512px"><g><path d="m396 280v36c0 8.82-7.18 16-16 16h-10c-8.82 0-16-7.18-16-16v-36c0-8.82 7.18-16 16-16h10c8.82 0 16 7.18 16 16zm55-38v108c0 22.09-17.91 40-40 40h-4c-4.42 0-8-3.58-8-8v-36.53c0-2.22.9-4.34 2.54-5.83 6.42-5.85 10.46-14.29 10.46-23.64v-36c0-17.67-14.33-32-32-32h-10c-17.67 0-32 14.33-32 32v36c0 17.67 14.33 32 32.01 32h5c4.42.01 7.99 3.59 7.99 8v33c0 50.21-40.85 91-91 91h-132c-50.148 0-91-40.797-91-91v-61h-2c-20.99 0-38-17.01-38-38v-35.65c0-26.78 22.03-48.5 48.92-47.99 26.28.49 47.08 22.51 47.08 48.79v34.85c0 9.96-3.85 19.04-10.15 25.82-4.93 5.32-13.85 1.79-13.85-5.47v-27.35c0-4.59-3.87-8.28-8.53-7.98-4.25.27-7.47 3.99-7.47 8.25v104.74c0 41.77 34.18 76.5 75.94 75.98 40.59-.5 73.51-33.4 74.05-73.99h-27.99c-22.09 0-40-17.91-40-40v-108c0-22.09 17.91-40 40-40h94v-32h-71.67c-22.05 0-40-17.94-40-40v-90c0-22.06 17.95-40 40-40h159.34c22.05 0 40 17.94 40 40v90c0 22.06-17.95 40-40 40h-71.67v32h94c22.09 0 40 17.91 40 40zm-99.696-157c0 4.418 3.582 8 8 8h20.713c4.418 0 8-3.582 8-8s-3.582-8-8-8h-20.713c-4.419 0-8 3.582-8 8zm-44.722 31.719 39.454-54c2.606-3.567 1.827-8.572-1.741-11.179-3.566-2.605-8.572-1.827-11.179 1.741l-32.994 45.158-13.268-18.159c-1.506-2.062-3.906-3.28-6.459-3.28h-42.414c-4.418 0-8 3.582-8 8s3.582 8 8 8h38.351l17.331 23.72c3.194 4.372 9.728 4.368 12.919-.001zm-31.592 273.281c-4.41 0-7.99-3.58-7.99-7.99v-39.8c0-2.52 1.16-4.94 3.21-6.4 7.13-5.08 11.79-13.41 11.79-22.81v-30c0-15.46-12.54-28-28-28h-22c-15.46 0-28 12.54-28 28v30c0 15.458 12.54 28 28 28 1.66 0 3-1.34 3-3 0-10.883.262-10.978-.88-12.12-.54-.54-1.29-.88-2.12-.88-6.63 0-12-5.37-12-12v-30c0-6.63 5.37-12 12-12h22c6.63 0 12 5.37 12 12v15.21c0 4.22-3.35 7.49-7.55 7.83-3.83.3-7.45 3.23-7.45 7.96v75c0 30.37-15.06 58.17-39.52 75h80.52c41.02 0 74.45-33.1 74.99-74z" data-original="#000000" class="active-path" data-old_color="#000000" fill="#6D6E71"/></g> </svg>
